<svg width="25" height="28" viewBox="0 0 25 28" fill="none" xmlns="http://www.w3.org/2000/svg">
<path d="M22.385 7.70602L24.7492 26.3907H24.7483L24.7634 26.504C24.7908 26.7099 24.7269 26.9218 24.5884 27.0837C24.4506 27.2396 24.2481 27.3316 24.0366 27.3316H1.73181C1.52004 27.3316 1.31734 27.2394 1.17951 27.0832L1.17939 27.0831C1.03623 26.9214 0.972259 26.715 0.999826 26.5037L0.999874 26.5033L3.37832 7.70602L3.37833 7.70587C3.42434 7.33793 3.73711 7.06167 4.11027 7.06167H7.75368H7.85368V6.96167V5.04323C7.85368 2.68859 9.76924 0.767969 12.1289 0.767969H13.6344C15.989 0.767969 17.9097 2.68353 17.9097 5.04323V6.96167V7.06167H18.0097H21.6531C22.0263 7.06167 22.339 7.3379 22.385 7.70587L22.385 7.70602ZM16.3372 7.06133H16.4372V6.96133V5.04289C16.4372 3.49788 15.1797 2.24037 13.6346 2.24037H12.1292C10.5842 2.24037 9.32666 3.49788 9.32666 5.04289L9.32685 6.96134L9.32686 7.06133H9.42685H16.3372ZM2.57915 25.746L2.56489 25.8586H2.67836H23.0856H23.199L23.1848 25.746L21.0154 8.62146L21.0043 8.53402H20.9162H18.0099H17.9099V8.63402V11.6188C17.9099 12.0236 17.5783 12.3552 17.1735 12.3552C16.7687 12.3552 16.4371 12.0236 16.4371 11.6188V8.63402V8.53402H16.3371H9.4268H9.3268V8.63402V11.6188C9.3268 12.0236 8.99521 12.3552 8.59043 12.3552C8.18566 12.3552 7.85406 12.0236 7.85406 11.6188V8.63402V8.53402H7.75406H4.8477H4.75957L4.7485 8.62146L2.57915 25.746Z" fill="#3E3E3D" stroke="white" stroke-width="0.2"/>
</svg>
