<svg width="39" height="42" viewBox="0 0 39 42" fill="none" xmlns="http://www.w3.org/2000/svg">
<path d="M33.3126 10.9746C33.3126 11.1915 33.1367 11.3676 32.9196 11.3676H12.6044C12.3869 11.3676 12.2114 11.1915 12.2114 10.9746C12.2114 10.7571 12.3872 10.5815 12.6044 10.5815H32.9196C33.1367 10.5812 33.3123 10.7571 33.3123 10.9746H33.3126ZM32.9196 15.0958H12.6044C12.3869 15.0958 12.2114 15.2716 12.2114 15.4888C12.2114 15.7057 12.3872 15.8819 12.6044 15.8819H32.9196C33.137 15.8819 33.3126 15.7057 33.3126 15.4888C33.3123 15.2719 33.1367 15.0958 32.9192 15.0958H32.9196ZM32.9196 19.61H12.6044C12.3869 19.61 12.2114 19.7859 12.2114 20.0031C12.2114 20.2199 12.3872 20.3961 12.6044 20.3961H32.9196C33.137 20.3961 33.3126 20.2199 33.3126 20.0031C33.3123 19.7859 33.1367 19.61 32.9192 19.61H32.9196ZM26.1478 24.1249H12.6043C12.3869 24.1249 12.2113 24.3007 12.2113 24.5179C12.2113 24.7348 12.3872 24.911 12.6043 24.911H26.1478C26.3653 24.911 26.5408 24.7348 26.5408 24.5179C26.5408 24.301 26.365 24.1249 26.1475 24.1249H26.1478ZM38 3.35875V37.33C38 39.4084 36.3092 41.0995 34.2311 41.0995H4.76888C2.6908 41.0995 1 39.3958 1 37.3016V26.2541C1 26.0372 1.17586 25.861 1.39305 25.861H7.75007L7.74706 3.35892C7.74676 2.73118 7.9929 2.13902 8.43935 1.6929C8.88579 1.24585 9.47762 1 10.1054 1H35.64C36.9411 1 37.9993 2.05788 37.9993 3.35894L38 3.35875ZM4.76927 40.3132C6.4142 40.3132 7.75202 38.9621 7.75202 37.3018L7.75051 26.6473H1.78656V37.3018C1.78656 38.9621 3.12499 40.3132 4.7693 40.3132H4.76927ZM37.2139 37.3301V3.35882C37.2139 2.49161 36.5086 1.78633 35.6414 1.78633H10.1059C9.68846 1.78633 9.29417 1.95012 8.99585 2.24876C8.69782 2.5468 8.53402 2.94105 8.53402 3.35854L8.53704 26.2475C8.53704 26.2502 8.53855 26.2527 8.53855 26.2551C8.53855 26.2581 8.53704 26.2602 8.53704 26.2629L8.53855 37.3028C8.53855 38.5299 7.95545 39.6194 7.05655 40.3141L34.2314 40.3138C35.8757 40.3132 37.2142 38.9751 37.2142 37.3302L37.2139 37.3301Z" fill="#3E3E3D" stroke="#3E3E3D" stroke-width="0.5"/>
</svg>
