<?xml version="1.0" encoding="UTF-8"?>
<svg id="Layer_2" data-name="Layer 2" xmlns="http://www.w3.org/2000/svg" viewBox="0 0 5541.32 3068.28">
  <defs>
    <style>
      .cls-1 {
        fill: #231f20;
        stroke-width: 0px;
      }
    </style>
  </defs>
  <g id="Layer_1-2" data-name="Layer 1">
    <path class="cls-1" d="M5182.87,411.23c118.45-64.32,237.78-128.2,358.45-184.99v562.52c-40.37,19.96-80.74,42.58-120.67,63.88-374.86,202.74-762.59,412.57-1178.71,412.57-208.95,0-410.35-52.79-606.44-130.87-195.2-77.64-386.4-181-573.61-281.7-334.94-179.67-650.35-350.91-940.93-350.91-145.07,0-297.23,43.03-454.27,108.25-157.04,65.65-319.41,152.16-486.66,242.66C804.73,1055.38,417.45,1265.21,0,1265.21v-501.74c290.57,0,606.43-171.24,940.93-352.24C1315.79,208.5,1704.41,0,2120.97,0c207.17,0,409.02,52.79,605.1,129.53,196.08,78.08,387.28,180.11,574.94,281.7,334.49,181,650.35,352.24,940.93,352.24,144.62,0,295.45-42.58,453.83-108.25,156.16-65.21,319.85-153.49,487.1-243.99"/>
    <path class="cls-1" d="M5182.87,2213.86c118.45-62.99,237.78-126.87,358.45-184.99v562.52c-40.37,19.96-80.74,42.58-120.67,64.32-374.86,202.3-762.59,411.24-1178.71,411.24s-805.18-208.94-1180.04-411.24c-334.94-181.44-650.35-352.23-940.93-352.23s-606.44,170.79-940.93,352.23C804.73,2858.01,417.45,3066.95,0,3068.28v-502.18c290.57-1.33,606.43-171.24,940.93-352.24,374.86-202.73,763.48-412.57,1180.04-412.57s805.18,209.84,1180.04,412.57c334.49,181,650.35,350.91,940.93,350.91s605.1-169.91,940.93-350.91"/>
  </g>
</svg>